<?xml version="1.0"?>
<svg width="2776.9597" height="922.4075900000001" xmlns="http://www.w3.org/2000/svg" xmlns:svg="http://www.w3.org/2000/svg">
 <g class="layer">
  <title>Layer 1</title>
  <g id="Layer1000">
   <path d="m1464.095812,247.5211l0,58.3738l-45.2647,0c-44.0019,0 -56.2625,10.9978 -56.2625,52.8904l0,78.2667c0,38.5052 12.2606,49.0929 55.0018,49.0929l46.5254,0l0,58.3739l-63.4495,0c-78.7008,0 -108.3241,-29.1826 -108.3241,-100.2731l0,-92.2222c0,-80.3934 28.3472,-104.5024 108.3241,-104.5024l63.4495,0zm-467.5128,3.3874l0,293.6103l70.2311,0l0,-235.2298l181.5041,0l0,-58.3805l-251.7352,0zm467.5128,293.6103l0,-58.3739l46.5386,0c44.8614,0 55.0106,-9.7305 55.0106,-49.5029l0,-78.2667c0,-42.7499 -14.394,-52.4804 -56.2778,-52.4804l-45.2714,0l0,-58.3738l65.5983,0c72.7525,0 106.1732,21.9976 106.1732,104.5024l0,92.2222c0,73.2019 -24.1156,100.2731 -106.1732,100.2731l-65.5983,0zm367.4612,-293.6103l0,58.3805l-81.4546,0l0,90.1107l81.4546,0l0,58.398l-81.4546,0l0,86.7211l-70.2311,0l0,-293.6103l151.6857,0zm0,206.8892l0,-58.398l35.7426,0c35.5409,0 45.7054,-13.9532 45.7054,-45.6901c0,-28.7638 -8.8885,-44.4206 -45.7054,-44.4206l-35.7426,0l0,-58.3805l48.4439,0c74.0526,0 103.2264,28.766 103.2264,102.8011c0,74.4626 -30.0332,104.0881 -102.391,104.0881l-49.2793,0zm358.5836,-210.2766l0,58.3738l-45.2801,0c-44.0106,0 -56.2844,10.9978 -56.2844,52.8904l0,78.2667c0,38.5052 12.2738,49.0929 55.0018,49.0929l46.5627,0l0,58.3739l-63.4781,0c-78.7095,0 -108.3021,-29.1826 -108.3021,-100.2731l0,-92.2222c0,-80.3934 28.3384,-104.5024 108.3021,-104.5024l63.4781,0zm0,296.9977l0,-58.3739l46.5167,0c44.8547,0 55.0018,-9.7305 55.0018,-49.5029l0,-78.2667c0,-42.7499 -14.3874,-52.4804 -56.2537,-52.4804l-45.2648,0l0,-58.3738l65.5522,0c72.7832,0 106.2214,21.9976 106.2214,104.5024l0,92.2222c0,73.2019 -24.1331,100.2731 -106.2214,100.2731l-65.5522,0zm394.0938,-293.6103l0,58.3805l-65.7912,0l0,96.4603c0,32.1622 -7.1937,56.2778 -24.1178,80.3956l89.909,0l0,58.0033l-188.4895,0.2083l0,-58.2116l19.8797,0c25.8017,-24.9751 35.1221,-52.8904 35.1221,-94.7742l0,-140.4622l133.4877,0zm0,293.2397l0,-58.0033l89.9156,0l0,-176.8559l-89.9156,0l0,-58.3805l160.1313,0l0,235.2364l32.5941,0l0,57.7863l-192.7254,0.217z" fill="#48494d" fill-rule="evenodd" id="path2"/>
   <path d="m1082.053112,637.5404l0,13.3084l28.0086,0l0,53.6561l16.0137,0l0,-53.6561l28.2765,0l0,-13.3084l-72.2988,0zm113.7531,0l0,13.3084l-18.5708,0l0,20.5616l18.5708,0l0,13.3171l-18.5708,0l0,19.7774l-16.0136,0l0,-66.9645l34.5844,0zm-137.8651,43.8066c0,8.1136 -3.2802,9.8495 -12.8314,9.8495l-20.5637,0c-9.1591,0 -12.9316,-1.9363 -12.9316,-12.1627l0,-16.6061c0,-10.5182 2.2282,-12.3478 12.9316,-12.3478l20.5637,0c9.2593,0 12.8314,2.9884 12.8314,10.0346l16.0137,0c0,-18.8169 -9.9367,-23.3583 -25.7652,-23.3583l-26.6473,0c-19.6794,0 -25.9481,5.5172 -25.9481,25.0878l0,19.026c0,17.9565 5.8853,23.6349 24.4104,23.6349l29.8295,0c19.7949,0 24.1207,-5.3081 24.2274,-23.1579l-16.1204,0zm137.8651,3.3805l0,-13.3171l8.1527,0c8.1158,0 10.4442,-3.1888 10.4442,-10.4268c0,-6.5627 -2.0453,-10.1348 -10.4442,-10.1348l-8.1527,0l0,-13.3084l11.0497,0c16.8979,0 23.5587,6.5605 23.5587,23.4432c0,16.9895 -6.8525,23.7439 -23.3584,23.7439l-11.25,0zm81.8042,-47.9713l0,13.3237l-10.32,0c-10.0434,0 -12.8401,2.5048 -12.8401,12.0647l0,17.8563c0,8.7844 2.7967,11.1956 12.5482,11.1956l10.6119,0l0,13.3084l-14.4759,0c-17.95,0 -24.7197,-6.6542 -24.7197,-22.866l0,-21.0386c0,-18.3269 6.4844,-23.8441 24.7197,-23.8441l14.4759,0zm311.4471,0.7842l0,40.816c0,9.7515 -1.5377,12.8401 -9.7362,12.8401l0,13.3084l6.7631,0c11.9557,0 18.9933,-7.1442 18.9933,-24.3036l0,-29.3525l37.6447,0l0,53.6561l16.0289,0l0,-66.9645l-69.6938,0zm-85.4003,66.9645l68.4261,0l0,-12.6397l-52.4037,0l0,-15.3449l50.7592,0l0,-11.6727l-50.7592,0l0,-14.6762l52.4037,0l0,-12.631l-68.4261,0l0,66.9645zm-80.3056,-66.9645l0,13.3084l27.9933,0l0,53.6561l16.0137,0l0,-53.6561l28.2765,0l0,-13.3084l-72.2835,0zm-79.5281,0l-16.0202,0l0,66.9645l27.5077,0l40.241,-53.6561l2.2195,0l0,53.6561l16.0224,0l0,-66.9645l-26.9413,0l-40.8161,53.6561l-2.213,0l0,-53.6561zm-66.2131,66.9645l0,-13.3084l10.6119,0c10.2263,0 12.5547,-2.2282 12.5547,-11.2871l0,-17.865c0,-9.7428 -3.2802,-11.9645 -12.8466,-11.9645l-10.32,0l0,-13.3237l14.9681,0c16.5909,0 24.2122,5.0185 24.2122,23.8441l0,21.0386c0,16.7041 -5.502,22.866 -24.2122,22.866l-14.9681,0zm426.1303,-41.9683l0,13.3084l-18.7342,0l0,15.3515l18.7342,0l0,13.3084l-34.7478,0l0,-66.9645l16.0136,0l0,24.9962l18.7342,0zm59.7266,-24.9962l-16.0202,0l0,66.9645l16.0202,0l0,-27.9846l41.4107,0l0,27.9846l16.0354,0l0,-66.9645l-16.0354,0l0,25.6649l-41.4107,0l0,-25.6649zm-59.7266,66.9645l0,-13.3084l8.9586,0c8.5993,0 9.7668,-1.9363 9.7668,-7.8216c0,-5.11 -0.8756,-7.5299 -9.1896,-7.5299l-9.5358,0l0,-13.3084l10.5116,0c15.822,0 24.2274,3.9403 24.2274,21.0386c0,16.8806 -7.9131,20.9297 -23.8505,20.9297l-10.8885,0zm170.0077,-66.9645l0,12.5395l-0.1459,0l-13.2322,24.8961l13.3781,0l0,12.6484l-19.8471,0l-8.6842,16.8805l-18.7168,0l35.508,-66.9645l11.7401,0zm0,50.084l0,-12.6484l13.3629,0l-12.7399,-24.8961l-0.623,0l0,-12.5395l12.0103,0l35.2161,66.9645l-18.8039,0l-8.5971,-16.8805l-19.8254,0zm91.155,-50.084l0,12.631l-12.1562,0c-7.1465,0 -9.1808,3.1888 -9.1808,10.2437c0,7.1312 2.8947,10.2264 9.6578,10.2264l11.6792,0l0,12.6419l-5.2929,0l-16.0441,21.2215l-20.8317,0l19.5705,-23.343c-7.6234,-1.7447 -14.7677,-9.843 -14.7677,-20.0868c0,-19.0086 9.9649,-23.5347 23.8571,-23.5347l13.5088,0zm96.8943,0l-16.0202,0l0,66.9645l16.0202,0l0,-28.6599l9.745,0l30.9883,28.6599l23.5522,0l-41.0252,-35.6059l39.4809,-31.3586l-24.0445,0l-29.2436,24.9962l-9.4531,0l0,-24.9962zm-96.8943,45.743l0,-12.6419l21.3305,0l0,-20.4701l-21.3305,0l0,-12.631l37.3528,0l0,66.9645l-16.0223,0l0,-21.2215l-21.3305,0zm207.2059,-46.5272l0,13.3237l-10.3113,0c-10.0433,0 -12.8488,2.5048 -12.8488,12.0647l0,17.8563c0,8.7844 2.8055,11.1956 12.5483,11.1956l10.6118,0l0,13.3084l-14.4693,0c-17.9413,0 -24.7022,-6.6542 -24.7022,-22.866l0,-21.0386c0,-18.3269 6.4603,-23.8441 24.7022,-23.8441l14.4693,0zm166.4117,0.7842l0,66.9645l16.0137,0l0,-53.6561l41.4085,0l0,53.6561l16.0136,0l0,-66.9645l-73.4358,0zm-115.7199,0l0,66.9645l16.0136,0l0,-53.6561l2.1281,0l22.9684,53.6561l22.7658,0l22.9903,-53.6561l2.1215,0l0,53.6561l16.0136,0l0,-66.9645l-29.8208,0l-22.1909,53.6561l-0.978,0l-22.1908,-53.6561l-29.8208,0zm-50.6918,66.9645l0,-13.3084l10.6359,0c10.2198,0 12.5308,-2.2282 12.5308,-11.2871l0,-17.865c0,-9.7428 -3.265,-11.9645 -12.8227,-11.9645l-10.344,0l0,-13.3237l14.9616,0c16.6127,0 24.2274,5.0185 24.2274,23.8441l0,21.0386c0,16.7041 -5.5019,22.866 -24.2274,22.866l-14.9616,0zm292.6978,-66.9645l0,12.5395l-0.1372,0l-13.2322,24.8961l13.3694,0l0,12.6484l-19.8232,0l-8.6908,16.8805l-18.7189,0l35.5145,-66.9645l11.7184,0zm152.635,0l-16.0137,0l0,66.9645l27.5099,0l40.2475,-53.6561l2.213,0l0,53.6561l16.0376,0l0,-66.9645l-26.9413,0l-40.8313,53.6561l-2.2217,0l0,-53.6561zm-84.638,0l-16.0224,0l0,66.9645l16.0224,0l0,-27.9846l41.4085,0l0,27.9846l16.0137,0l0,-66.9645l-16.0137,0l0,25.6649l-41.4085,0l0,-25.6649zm-67.997,50.084l0,-12.6484l13.3781,0l-12.7465,-24.8961l-0.6316,0l0,-12.5395l12.0255,0l35.2248,66.9645l-18.8191,0l-8.5971,-16.8805l-19.8341,0zm272.9813,-50.084l0,12.631l-12.1475,0c-7.1247,0 -9.1743,3.1888 -9.1743,10.2437c0,7.1312 2.9035,10.2264 9.6731,10.2264l11.6487,0l0,12.6419l-5.2864,0l-16.0354,21.2215l-20.8469,0l19.5945,-23.343c-7.6235,-1.7447 -14.77,-9.843 -14.77,-20.0868c0,-19.0086 9.9367,-23.5347 23.8506,-23.5347l13.4936,0zm0,45.743l0,-12.6419l21.3457,0l0,-20.4701l-21.3457,0l0,-12.631l37.3593,0l0,66.9645l-16.0136,0l0,-21.2215l-21.3457,0z" fill="#101010" fill-rule="evenodd" id="path4"/>
   <path d="m0.541612,595.3284l334.1237,197.253l0,-350.9032l-281.6368,-165.3999l-51.1034,-29.1826l49.8515,-31.3575l335.3165,-204.2209l18.2988,-11.5173l18.6036,11.0832l374.1615,234.8987l-321.6044,199.7108l-0.2236,-86.7145l189.6712,-112.9963l-259.6326,-163.2512l-268.2646,163.2512l249.5075,144.4986l17.8143,10.1953l0,521.7318l-54.5852,-35.348l-350.2147,-207.9021l-0.0833,-83.8291z" fill="#48494d" fill-rule="evenodd" id="path6"/>
   <path d="m476.329012,529.0571l319.9863,-205.3654l0,93.4214l0.3947,290.6175l-320.381,214.677l0,-85.8243l250.0644,-169.0593l-0.6183,-215.1331l-249.4461,161.4249l0,-84.7587z" fill="#9c1800" fill-rule="evenodd" id="path8"/>
   <path d="m0.000012,378.4852l264.5592,151.747l-0.0635,82.4523l-264.4957,-151.7778l0,-82.4215z" fill="#9c1800" fill-rule="evenodd" id="path10"/>
  </g>
 </g>
</svg>